<svg viewBox="0 0 18 18" fill="none" xmlns="http://www.w3.org/2000/svg"><path d="M9 7.313h1.125v3.375H9V7.312zM3.375 8.438H4.5V7.312H3.375v1.125zM18 2.25v13.5A2.25 2.25 0 0 1 15.75 18H2.25A2.25 2.25 0 0 1 0 15.75V2.25A2.25 2.25 0 0 1 2.25 0h13.5A2.25 2.25 0 0 1 18 2.25zM6.187 7.313A1.687 1.687 0 0 0 4.5 5.625H1.687v6.75h1.688v-2.25H4.5a1.687 1.687 0 0 0 1.688-1.688V7.313zm5.625 0a1.687 1.687 0 0 0-1.687-1.688H7.312v6.75h2.813a1.687 1.687 0 0 0 1.688-1.688V7.313zm4.5-1.688h-3.375v6.75h1.688v-2.25h1.688V8.437h-1.688V7.313h1.688V5.625z" fill="#B3B3B3"/></svg>